<svg xmlns="http://www.w3.org/2000/svg" viewBox="0 0 360 200">
  <defs>
    <linearGradient id="arch" x1="0" y1="0" x2="1" y2="0">
      <stop offset="0" stop-color="#69C39B" stop-opacity=".6"/>
      <stop offset="1" stop-color="#1C7C54" stop-opacity=".9"/>
    </linearGradient>
  </defs>
  <circle cx="180" cy="100" r="88" fill="#E8F5EF"/>
  <path d="M180 36c36 0 62 26 62 64c0 22-7 34-15 51c-4 8-13 26-18 26c-7 0-11-14-18-28c-4 -9 -8 -13 -11 -13c-3 0 -7 4 -11 13c-7 14 -11 28 -18 28c-5 0 -14 -18 -18 -26c-8 -17 -15 -29 -15 -51c0 -38 26 -64 62 -64z"
        fill="#FFFFFF" stroke="#0B1F17" stroke-width="6" />
  <path d="M108 122 C150 102 210 102 252 122" fill="none" stroke="url(#arch)" stroke-width="10" stroke-linecap="round"/>
  <g fill="#1C7C54" stroke="#0B1F17" stroke-width="4">
    <rect x="130" y="112" width="22" height="22" rx="4"/>
    <rect x="169" y="108" width="22" height="22" rx="4"/>
    <rect x="208" y="112" width="22" height="22" rx="4"/>
  </g>
</svg>