<svg xmlns="http://www.w3.org/2000/svg" viewBox="0 0 360 200">
  <!-- Palette: deep-green #0E3B2E, primary #1C7C54, accent #69C39B, line #0B1F17 -->
  <defs>
    <linearGradient id="arch" x1="0" y1="0" x2="1" y2="0">
      <stop offset="0" stop-color="#69C39B" stop-opacity=".6"/>
      <stop offset="1" stop-color="#1C7C54" stop-opacity=".9"/>
    </linearGradient>
    <filter id="soft" x="-30%" y="-30%" width="160%" height="160%">
      <feGaussianBlur stdDeviation="1.2"/>
    </filter>
  </defs>

  <!-- Subtle circular backdrop -->
  <circle cx="180" cy="100" r="88" fill="#E8F5EF"/>

  <!-- Tooth silhouette -->
  <path d="M180 36
           c 36 0 62 26 62 64
           c 0 22 -7 34 -15 51
           c -4 8 -13 26 -18 26
           c -7 0 -11 -14 -18 -28
           c -4 -9 -8 -13 -11 -13
           c -3 0 -7 4 -11 13
           c -7 14 -11 28 -18 28
           c -5 0 -14 -18 -18 -26
           c -8 -17 -15 -29 -15 -51
           c 0 -38 26 -64 62 -64 z"
        fill="#FFFFFF" stroke="#0B1F17" stroke-width="6" />

  <!-- Archwire -->
  <path d="M108 122 C150 102 210 102 252 122" fill="none" stroke="url(#arch)" stroke-width="10" stroke-linecap="round"/>

  <!-- Brackets (3) -->
  <g fill="#1C7C54" stroke="#0B1F17" stroke-width="4">
    <rect x="130" y="112" width="22" height="22" rx="4"/>
    <rect x="169" y="108" width="22" height="22" rx="4"/>
    <rect x="208" y="112" width="22" height="22" rx="4"/>
  </g>

  <!-- Tiny molecule (STEM nod) in green -->
  <g fill="#69C39B" stroke="#1C7C54" stroke-width="3" stroke-linecap="round">
    <circle cx="287" cy="52" r="7"/>
    <circle cx="307" cy="64" r="6"/>
    <circle cx="272" cy="66" r="6"/>
    <line x1="287" y1="52" x2="307" y2="64"/>
    <line x1="287" y1="52" x2="272" y2="66"/>
  </g>
</svg>
