<svg xmlns="http://www.w3.org/2000/svg" width="320" height="320" viewBox="0 0 320 320">
  <defs>
    <g id="tooth" fill="none" stroke="#B6F0D0" stroke-width="5" opacity=".95">
      <path d="M160 60c26 0 45 19 45 46c0 16-5 24-11 36c-3 6-9 19-13 19c-5 0-8-10-13-20c-3-6-5-9-8-9s-5 3-8 9c-5 10-8 20-13 20c-4 0-10-13-13-19c-6-12-11-20-11-36c0-27 19-46 45-46z"/>
      <path d="M120 140c26-12 54-12 80 0"/>
    </g>
    <g id="bracket" fill="none" stroke="#B6F0D0" stroke-width="5" opacity=".95">
      <rect x="0" y="0" width="34" height="34" rx="6"/>
      <path d="M-12 17h58"/>
    </g>
    <g id="molecule" fill="#B6F0D0" opacity=".95" stroke="none">
      <circle cx="0" cy="0" r="6"/><circle cx="28" cy="10" r="5"/><circle cx="-20" cy="14" r="5"/>
    </g>
  </defs>

  <rect width="320" height="320" fill="none"/>
  <!-- tile grid -->
  <g transform="translate(48,48)">
    <!-- row 1 -->
    <use href="#tooth" x="-32" y="-36" transform="scale(.35)"/>
    <use href="#bracket" x="88" y="-10"/>
    <use href="#molecule" x="162" y="-20"/>
    <use href="#tooth" x="230" y="-36" transform="scale(.35)"/>
    <!-- row 2 -->
    <use href="#molecule" x="-10" y="88"/>
    <use href="#tooth" x="60" y="60" transform="scale(.32)"/>
    <use href="#bracket" x="170" y="80" />
    <use href="#molecule" x="250" y="84"/>
    <!-- row 3 -->
    <use href="#bracket" x="0" y="170"/>
    <use href="#molecule" x="76" y="190"/>
    <use href="#tooth" x="140" y="152" transform="scale(.34)"/>
    <use href="#bracket" x="240" y="170"/>
  </g>
</svg>
